# Blender v3.1.2 OBJ File: ''
# www.blender.org
mtllib bidon.mtl
o Cylinder
v 0.000000 -1.000000 -1.000000
v -0.555570 1.601300 -0.831470
v 0.555570 1.601300 -0.831470
v 0.980785 1.601300 -0.195090
v 0.707107 -1.000000 -0.707107
v 1.000000 -1.000000 -0.000000
v 0.831470 1.601300 0.555570
v 0.707107 -1.000000 0.707107
v -0.448443 1.601300 -0.631048
v -0.768019 1.601300 -0.152769
v -0.768019 1.380950 -0.152769
v -0.448443 1.380950 -0.631048
v 0.195090 1.601300 0.980785
v 0.000000 -1.000000 1.000000
v -0.195090 1.601300 0.980785
v -0.707107 -1.000000 0.707107
v -0.831469 1.601300 0.555570
v -1.000000 -1.000000 -0.000000
v -0.980785 1.601300 -0.195090
v -0.707107 -1.000000 -0.707107
v 0.448443 1.601300 -0.631048
v 0.768019 1.601300 -0.152768
v 0.651095 1.601300 0.435048
v 0.134293 1.601300 0.780364
v -0.134293 1.601300 0.780364
v -0.651095 1.601300 0.435048
v -0.134293 1.380950 0.780364
v -0.651095 1.380950 0.435048
v 0.651095 1.380950 0.435048
v 0.134293 1.380950 0.780364
v 0.448443 1.380950 -0.631048
v 0.768019 1.380950 -0.152768
vt 0.791766 0.269240
vt 0.736917 0.782865
vt 0.846614 0.782865
vt 0.864442 0.456440
vt 0.864442 0.582093
vt 0.607630 0.480996
vt 0.607630 0.620614
vt 0.864442 0.730311
vt 0.607630 0.760232
vt 0.864442 0.496014
vt 0.864442 0.590450
vt 0.842688 0.590450
vt 0.842688 0.496014
vt 0.873852 0.782865
vt 0.811026 0.782865
vt 0.861575 0.269240
vt 0.791766 0.269240
vt 0.772506 0.782865
vt 0.721957 0.269240
vt 0.709679 0.782865
vt 0.607630 0.760232
vt 0.864442 0.730311
vt 0.607630 0.620614
vt 0.864442 0.582093
vt 0.607630 0.480996
vt 0.864442 0.456440
vt 0.791766 0.423164
vt 0.861575 0.480996
vt 0.890491 0.620614
vt 0.861575 0.760232
vt 0.791766 0.818063
vt 0.721957 0.760232
vt 0.693041 0.620614
vt 0.721957 0.480996
vt 0.721957 0.269240
vt 0.861575 0.269240
vt 0.836038 0.496014
vt 0.867588 0.590450
vt 0.888594 0.582093
vt 0.846614 0.456440
vt 0.856045 0.706514
vt 0.873852 0.730311
vt 0.805024 0.774696
vt 0.811026 0.814269
vt 0.778508 0.774696
vt 0.772506 0.814269
vt 0.727487 0.706514
vt 0.709679 0.730311
vt 0.715943 0.590450
vt 0.694938 0.582093
vt 0.747493 0.496014
vt 0.736917 0.456440
vt 0.727487 0.782865
vt 0.778508 0.782865
vt 0.778508 0.739357
vt 0.727487 0.739357
vt 0.805024 0.782865
vt 0.856045 0.782865
vt 0.856045 0.739357
vt 0.805024 0.739357
vt 0.864442 0.590450
vt 0.864442 0.496014
vt 0.842688 0.496014
vt 0.842688 0.590450
vt 0.836038 0.782865
vt 0.747493 0.782865
vt 0.747493 0.739357
vt 0.836038 0.739357
vt 0.864442 0.706514
vt 0.842688 0.706514
vt 0.864442 0.706514
vt 0.842688 0.706514
vt 0.122734 0.115016
vt 0.030636 0.390682
vt 0.064332 0.729483
vt 0.213267 0.928514
vt 0.290670 0.928514
vt 0.439605 0.729483
vt 0.473301 0.390683
vt 0.381204 0.115016
vn 0.0000 0.0647 -0.9979
vn 0.8313 0.0219 -0.5554
vn 0.9237 -0.0219 -0.3826
vn 0.9806 0.0219 0.1950
vn 0.9237 -0.0219 0.3826
vn 0.8315 0.0000 0.5556
vn 0.5554 0.0219 0.8313
vn 0.3826 -0.0219 0.9237
vn 0.0000 0.0074 1.0000
vn -0.3826 -0.0219 0.9237
vn -0.5554 0.0219 0.8313
vn -0.9237 -0.0219 0.3826
vn -0.9806 0.0219 0.1950
vn -0.9237 -0.0219 -0.3826
vn -0.8313 0.0219 -0.5554
vn 0.0000 -1.0000 -0.0000
vn -0.3826 -0.0219 -0.9237
vn 0.3826 -0.0219 -0.9237
vn 0.0000 1.0000 -0.0000
vn 0.5556 0.0000 -0.8315
vn -0.5556 0.0000 -0.8315
vn -0.8315 0.0000 0.5556
vn 0.0000 0.0000 1.0000
vn 0.9808 0.0000 -0.1951
vn 0.0000 0.0000 -1.0000
vn -0.9808 0.0000 -0.1951
usemtl Material.001
s 1
f 1/1/1 2/2/1 3/3/1
f 3/4/2 4/5/2 5/6/2
f 4/5/3 6/7/3 5/6/3
f 4/5/4 7/8/4 6/7/4
f 7/8/5 8/9/5 6/7/5
f 9/10/6 10/11/6 11/12/6 12/13/6
f 7/14/7 13/15/7 8/16/7
f 13/15/8 14/17/8 8/16/8
f 13/15/9 15/18/9 14/17/9
f 14/17/10 15/18/10 16/19/10
f 16/19/11 15/18/11 17/20/11
f 16/21/12 17/22/12 18/23/12
f 18/23/13 17/22/13 19/24/13
f 18/23/14 19/24/14 20/25/14
f 20/25/15 19/24/15 2/26/15
f 1/27/16 5/28/16 6/29/16 8/30/16 14/31/16 16/32/16 18/33/16 20/34/16
f 1/1/17 20/35/17 2/2/17
f 1/1/18 3/3/18 5/36/18
f 21/37/19 22/38/19 4/39/19 3/40/19
f 22/38/19 23/41/19 7/42/19 4/39/19
f 23/41/19 24/43/19 13/44/19 7/42/19
f 24/43/19 25/45/19 15/46/19 13/44/19
f 25/45/19 26/47/19 17/48/19 15/46/19
f 26/47/19 10/49/19 19/50/19 17/48/19
f 10/49/19 9/51/19 2/52/19 19/50/19
f 9/51/19 21/37/19 3/40/19 2/52/19
f 26/53/20 25/54/20 27/55/20 28/56/20
f 24/57/21 23/58/21 29/59/21 30/60/21
f 22/61/22 21/62/22 31/63/22 32/64/22
f 21/65/23 9/66/23 12/67/23 31/68/23
f 10/11/24 26/69/24 28/70/24 11/12/24
f 25/54/25 24/57/25 30/60/25 27/55/25
f 23/71/26 22/61/26 32/64/26 29/72/26
usemtl Material.002
f 12/73/19 11/74/19 28/75/19 27/76/19 30/77/19 29/78/19 32/79/19 31/80/19
