# Blender v3.1.2 OBJ File: 'E1M1_ME.blend'
# www.blender.org
o E1M1.001
v -46.400002 7.188961 -19.200001
v -46.400002 11.188961 -19.200001
v -46.400002 11.188963 -32.000000
v -46.400002 7.188963 -32.000000
v -72.000000 7.188963 -32.000000
v -72.000000 11.188963 -32.000000
v -72.000000 11.188961 -19.200001
v -72.000000 7.188961 -19.200001
v -15.200000 -3.211040 35.200001
v -15.200000 -0.811040 35.200001
v 0.000000 -0.811040 28.800001
v 0.000000 -3.211040 28.800001
v -37.600002 -3.211040 35.200001
v -37.600002 -0.811040 35.200001
v -52.000000 -3.211040 31.200001
v -52.000000 -0.811040 31.200001
v -60.799999 -3.211040 18.400000
v -60.799999 -0.811040 18.400000
v -54.400002 -3.211039 4.800001
v -54.400002 -0.811039 4.800001
v -26.400000 -3.211039 0.800000
v -26.400000 -0.811039 0.800000
v -2.400000 -3.211040 7.200001
v -2.400000 -0.811039 7.200001
v 14.400001 -0.811038 -19.200001
v 14.400001 7.188961 -19.200001
v -0.800000 7.188963 -22.400000
v -0.800000 -0.811038 -22.400000
v -15.200000 7.188963 -28.800001
v -15.200000 -0.811038 -28.800001
v -46.400002 -0.811038 -32.000000
v -96.800003 -0.811038 -28.800001
v -96.800003 7.188963 -28.800001
v -121.599998 7.188961 -19.200001
v -121.599998 -0.811038 -19.200001
v -72.000000 -0.811038 -32.000000
v 14.400001 23.988960 35.200001
v 14.400001 26.388962 35.200001
v 14.400001 26.388962 25.600002
v 14.400001 23.988960 25.600002
v 14.400001 -0.811040 35.200001
v 14.400001 5.588960 35.200001
v 14.400001 5.588961 25.600000
v 14.400001 -0.811040 25.600000
v 14.400001 23.988960 19.200003
v 14.400001 26.388962 19.200003
v 14.400001 26.388962 9.600002
v 14.400001 23.988960 9.600002
v 14.400001 -0.811040 19.200001
v 14.400001 5.588961 19.200001
v 14.400001 5.588962 9.600001
v 14.400001 -0.811039 9.600000
v 14.400001 -0.811041 51.200001
v 14.400001 26.388958 51.200001
v 4.800000 -0.811041 57.600002
v 4.800000 26.388958 57.600002
v -40.000000 4.788960 53.600002
v -40.000000 26.388958 53.600002
v -33.600002 26.388958 57.600002
v -33.600002 4.788959 57.600002
v -40.000000 -0.811041 53.600002
v -33.600002 -0.811041 57.600002
v -121.599998 26.388962 -19.199999
v -121.599998 26.388962 9.600002
v -121.599998 -0.811039 9.600000
v -72.000000 26.388962 -19.199999
v -46.400002 26.388962 -19.199999
v 14.400001 26.388962 -19.199999
v -75.200005 -0.811041 44.799999
v -75.200005 26.388958 44.799999
v -72.000000 26.388958 53.600002
v -72.000000 -0.811041 53.600002
v -91.200005 -0.811040 34.400002
v -91.200005 26.388962 34.400002
v -121.599998 -0.811040 34.400002
v -121.599998 26.388962 34.400002
v -121.599998 18.388962 9.600001
v -121.599998 18.388960 34.400002
v -121.599998 4.788961 9.600001
v -121.599998 4.788960 34.400002
v 14.400001 -0.811039 -6.400000
v 14.400001 26.388962 -6.399999
v 14.400001 26.388962 6.400002
v 14.400001 -0.811039 6.400001
v 14.400001 4.788961 6.400001
v 14.400001 4.788961 -6.400000
v -14.400001 -0.811041 57.600002
v -14.400001 26.388958 57.600002
v -14.400001 4.788959 57.600002
v -65.599998 4.788960 53.600002
v -65.599998 26.388958 53.600002
v -65.599998 -0.811041 53.600002
v -123.200005 4.788961 9.600001
v -123.200005 4.788960 34.400002
v -123.200005 18.388960 34.400002
v -65.599998 6.388962 -22.400000
v -52.799999 -0.811038 -22.400000
v -52.799999 6.388962 -22.400000
v -68.800003 -0.811038 -22.400000
v -68.800003 11.188963 -22.400000
v -65.599998 11.188963 -22.400000
v -49.600002 11.188963 -22.400000
v -49.600002 -0.811038 -22.400000
v -52.799999 11.188963 -22.400000
v -121.599998 -0.811040 18.400000
v -46.400002 -0.811038 -19.200001
v -72.000000 -0.811038 -19.200001
v -121.599998 26.388962 18.400002
v -60.799999 26.388962 18.400002
v -52.000000 26.388962 31.200003
v -54.400002 26.388962 4.800002
v -37.600002 26.388962 35.200001
v -15.200000 26.388962 35.200001
v -26.400000 26.388962 0.800002
v 0.000000 26.388962 28.800003
v -2.400000 26.388962 7.200002
vt 2.000000 0.000000
vt 0.000000 -0.625000
vt 2.000000 -0.625000
vt 2.000000 0.000000
vt 0.000000 -0.625000
vt 2.000000 -0.625000
vt 0.000000 0.000000
vt 0.000000 0.000000
vt 1.289063 -2.125000
vt 0.000000 -2.312500
vt 1.289063 -2.312500
vt 1.750000 -2.125000
vt 0.000000 -2.312500
vt 1.750000 -2.312500
vt 1.164063 -2.125000
vt 0.000000 -2.312500
vt 1.164063 -2.312500
vt 1.210938 -2.125000
vt 0.000000 -2.312500
vt 1.210938 -2.312500
vt 1.171875 -2.125000
vt 0.000000 -2.312500
vt 1.171875 -2.312500
vt 2.210938 -2.125000
vt 0.000000 -2.312500
vt 2.210938 -2.312500
vt 1.937500 -2.125000
vt 0.000000 -2.312500
vt 1.937500 -2.312500
vt 1.695313 -2.125000
vt 0.000000 -2.312500
vt 1.695313 -2.312500
vt 1.210938 0.000000
vt 0.000000 -0.625000
vt 1.210938 -0.625000
vt 1.234375 0.000000
vt 0.000000 -0.625000
vt 1.234375 -0.625000
vt 2.453125 0.000000
vt 0.000000 -0.625000
vt 2.453125 -0.625000
vt 2.078125 0.000000
vt 0.000000 -0.625000
vt 2.078125 -0.625000
vt 1.953125 0.000000
vt 0.000000 -0.625000
vt 1.953125 -0.625000
vt 0.000000 -2.125000
vt 0.000000 -2.125000
vt 0.000000 -2.125000
vt 0.000000 -2.125000
vt 0.000000 -2.125000
vt 0.000000 -2.125000
vt 0.000000 -2.125000
vt 0.000000 -2.125000
vt 0.000000 0.000000
vt 0.000000 0.000000
vt 0.000000 0.000000
vt 0.000000 0.000000
vt 0.000000 0.000000
vt 0.750000 0.000000
vt 0.000000 -0.187500
vt 0.750000 -0.187500
vt 0.750000 -1.625000
vt 0.000000 -2.125000
vt 0.750000 -2.125000
vt 0.750000 0.000000
vt 0.000000 -0.187500
vt 0.750000 -0.187500
vt 0.750000 -1.625000
vt 0.000000 -2.125000
vt 0.750000 -2.125000
vt 0.500000 0.000000
vt 0.000000 -2.125000
vt 0.500000 -2.125000
vt 1.250000 0.000000
vt 0.000000 -2.125000
vt 1.250000 -2.125000
vt 0.898438 0.000000
vt 0.000000 -2.125000
vt 0.898438 -2.125000
vt 0.585938 0.000000
vt 0.000000 -1.687500
vt 0.585938 -1.687500
vt 0.585938 -0.687500
vt 0.000000 -1.125000
vt 0.585938 -1.125000
vt 2.250000 0.000000
vt 0.000000 -2.125000
vt 2.250000 -2.125000
vt 3.875000 0.000000
vt 0.000000 -1.500000
vt 3.875000 -1.500000
vt 2.000000 0.000000
vt 0.000000 -1.187500
vt 2.000000 -1.187500
vt 4.750000 0.000000
vt 0.000000 -1.500000
vt 4.750000 -1.500000
vt 0.734375 0.000000
vt 0.000000 -2.125000
vt 0.734375 -2.125000
vt 1.492188 0.000000
vt 0.000000 -2.125000
vt 1.492188 -2.125000
vt 2.375000 0.000000
vt 0.000000 -2.125000
vt 2.375000 -2.125000
vt 1.937500 0.000000
vt 0.000000 -0.625000
vt 1.937500 -0.625000
vt 1.937500 -1.687500
vt 0.000000 -2.125000
vt 1.937500 -2.125000
vt 1.000000 0.000000
vt 0.000000 -2.125000
vt 1.000000 -2.125000
vt 0.250000 0.000000
vt 0.000000 -2.125000
vt 0.250000 -2.125000
vt 1.000000 0.000000
vt 0.000000 -1.687500
vt 1.000000 -1.687500
vt 1.000000 -0.687500
vt 0.000000 -1.125000
vt 1.000000 -1.125000
vt 1.500000 0.000000
vt 0.000000 -2.125000
vt 1.500000 -2.125000
vt 1.500000 0.000000
vt 0.000000 -1.687500
vt 1.500000 -1.687500
vt 1.500000 -0.687500
vt 0.000000 -1.125000
vt 1.500000 -1.125000
vt 2.000000 0.000000
vt 0.000000 -1.687500
vt 2.000000 -1.687500
vt 2.000000 -0.687500
vt 0.000000 -1.125000
vt 2.000000 -1.125000
vt 0.500000 0.000000
vt 0.000000 -2.125000
vt 0.500000 -2.125000
vt 0.000000 0.000000
vt 0.000000 -1.625000
vt 0.000000 0.000000
vt 0.000000 -1.625000
vt 0.000000 0.000000
vt 0.000000 0.000000
vt 0.000000 0.000000
vt 0.000000 0.000000
vt 0.000000 -0.687500
vt 0.000000 0.000000
vt 0.000000 0.000000
vt 0.000000 0.000000
vt 0.000000 0.000000
vt 0.000000 0.000000
vt 0.000000 0.000000
vt 0.000000 0.000000
vt 0.000000 0.000000
vt 0.000000 -1.687500
vt 0.000000 0.000000
vt 0.000000 0.000000
vt 0.000000 0.000000
vt 0.000000 -0.687500
vt 0.000000 0.000000
vt 0.000000 0.000000
vt 0.000000 -0.687500
vt 0.000000 0.000000
vt 0.000000 -0.687500
vt 0.000000 0.000000
vt 2.000000 0.000000
vt 0.000000 -1.062500
vt 2.000000 -1.062500
vt 0.000000 0.000000
vt 0.789062 0.000000
vt 0.000000 -0.937500
vt 0.789062 -0.937500
vt 0.789062 0.000000
vt 0.000000 -0.937500
vt 0.789062 -0.937500
vt 0.250000 0.000000
vt 0.000000 -0.937500
vt 0.250000 -0.937500
vt 1.000000 0.000000
vt 0.000000 -0.375000
vt 1.000000 -0.375000
vt 0.000000 0.000000
vt 0.000000 0.000000
vt 0.000000 0.000000
vt 0.000000 0.000000
vt 21.500000 -57.000000
vt 42.750000 -57.000000
vt 42.750000 -51.125000
vt 23.000000 -45.000000
vt 21.500000 -46.000000
vt 30.000000 -45.625000
vt 29.000000 -45.000000
vt 35.500000 -47.000000
vt 35.000000 -45.625000
vt 42.750000 -48.625000
vt 38.000000 -48.625000
vt 33.250000 -51.125000
vt 31.875000 -49.125000
vt 32.250000 -53.250000
vt 29.625000 -48.500000
vt 26.125000 -48.500000
vt 27.875000 -53.875000
vt 23.750000 -49.500000
vt 24.125000 -52.875000
vt 23.875000 -57.500000
vt 26.125000 -58.500000
vt 31.000000 -59.000000
vt 31.000000 -57.000000
vt 31.500000 -57.500000
vt 34.500000 -57.500000
vt 35.000000 -59.000000
vt 35.000000 -57.000000
vt 38.875000 -58.500000
vt 21.500000 -57.000000
vt 42.750000 -51.125000
vt 42.750000 -57.000000
vt 23.000000 -45.000000
vt 21.500000 -46.000000
vt 30.000000 -45.625000
vt 29.000000 -45.000000
vt 35.500000 -47.000000
vt 35.000000 -45.625000
vt 38.000000 -48.625000
vt 42.750000 -48.625000
vt 33.250000 -51.125000
vt 31.875000 -49.125000
vt 32.250000 -53.250000
vt 29.625000 -48.500000
vt 26.125000 -48.500000
vt 27.875000 -53.875000
vt 23.750000 -49.500000
vt 24.125000 -52.875000
vt 23.875000 -57.500000
vt 31.000000 -59.000000
vt 26.125000 -58.500000
vt 31.000000 -57.000000
vt 21.500000 -57.000000
vt 31.000000 -57.000000
vt 31.500000 -57.500000
vt 31.000000 -59.000000
vt 34.500000 -57.500000
vt 35.000000 -57.000000
vt 35.000000 -59.000000
vt 35.000000 -59.000000
vt 42.750000 -57.000000
vt 38.875000 -58.500000
vt 35.000000 -57.000000
vt 42.750000 -48.625000
vt 42.750000 -52.500000
vt 43.000000 -52.500000
vt 43.000000 -48.625000
vt 27.875000 -53.875000
vt 32.250000 -53.250000
vt 33.250000 -51.125000
vt 24.125000 -52.875000
vt 23.750000 -49.500000
vt 26.125000 -48.500000
vt 29.625000 -48.500000
vt 31.875000 -49.125000
vn -0.5774 -0.5774 0.5773
vn -0.6281 -0.5329 0.5670
vn -0.5774 -0.5774 0.5774
vn 0.1350 -0.5387 0.8316
vn 0.5774 -0.5774 0.5774
vn 0.6407 -0.5216 0.5634
vn -0.1350 -0.5387 0.8316
vn -0.1299 0.7545 -0.6433
vn -0.6938 0.5940 -0.4072
vn -0.1478 0.6651 -0.7319
vn 0.0910 0.7388 -0.6677
vn 0.0993 0.6779 -0.7284
vn 0.3541 0.7927 -0.4962
vn 0.4474 0.6377 -0.6271
vn 0.5439 0.8380 -0.0443
vn 0.7895 0.6104 -0.0643
vn 0.3306 0.8310 0.4474
vn 0.4690 0.6143 0.6346
vn -0.0389 0.7550 0.6546
vn -0.0443 0.6648 0.7457
vn -0.3888 0.8585 0.3345
vn -0.6068 0.5994 0.5220
vn -0.4264 0.8692 -0.2503
vn -0.1033 -0.0663 0.9924
vn -0.2098 0.7316 0.6487
vn -0.6275 0.5891 0.5092
vn -0.2098 -0.7316 0.6487
vn -0.1902 0.6733 0.7144
vn -0.1902 -0.6733 0.7144
vn 0.4381 0.5898 0.6784
vn 0.1803 -0.6810 0.7097
vn 0.6604 0.5993 0.4525
vn 0.1803 0.6810 0.7097
vn -0.4298 0.5882 0.6850
vn 0.1823 -0.1187 0.9760
vn -1.0000 0.0000 0.0000
vn -0.6954 -0.6147 -0.3722
vn -0.6954 0.6147 -0.3722
vn -0.2209 -0.6473 -0.7295
vn -0.2209 0.6473 -0.7295
vn 0.1743 -0.7747 -0.6078
vn 0.2757 0.0000 -0.9612
vn 0.2095 0.6500 -0.7305
vn 0.1743 0.7747 -0.6078
vn 1.0000 -0.0000 0.0000
vn 0.0000 -0.0000 1.0000
vn -0.5774 -0.5773 0.5774
vn 0.4840 -0.7860 -0.3847
vn 0.4598 0.5979 -0.6565
vn 0.4840 0.7860 -0.3847
vn 0.1789 -0.7770 -0.6035
vn 0.1789 0.7770 -0.6035
vn 0.5774 -0.5774 -0.5774
vn 0.5774 0.5774 -0.5774
vn 0.7071 0.0000 -0.7071
vn 0.7071 0.7071 0.0000
vn 0.0000 0.0000 -1.0000
vn 0.2095 -0.6500 -0.7305
vn 0.4598 -0.5979 -0.6565
vn 0.0000 0.7071 -0.7071
vn -0.3196 -0.9416 0.1065
vn -0.3196 0.9416 0.1065
vn 0.2935 0.8649 0.4073
vn 0.2935 -0.8649 0.4073
vn -0.0000 1.0000 0.0000
vn 0.0000 -1.0000 0.0000
s 1
f 2/1/1 4/2/2 1/3/3
f 6/4/4 8/5/5 5/6/6
f 2/1/1 3/7/7 4/2/2
f 6/4/4 7/8/5 8/5/5
f 10/9/8 12/10/9 9/11/10
f 14/12/11 9/13/10 13/14/12
f 16/15/13 13/16/12 15/17/14
f 18/18/15 15/19/14 17/20/16
f 20/21/17 17/22/16 19/23/18
f 22/24/19 19/25/18 21/26/20
f 24/27/21 21/28/20 23/29/22
f 11/30/23 23/31/22 12/32/9
f 26/33/24 28/34/25 25/35/26
f 27/36/27 30/37/28 28/38/25
f 29/39/29 31/40/30 30/41/28
f 33/42/31 35/43/32 32/44/33
f 5/45/6 32/46/33 36/47/34
f 10/9/8 11/48/23 12/10/9
f 14/12/11 10/49/8 9/13/10
f 16/15/13 14/50/11 13/16/12
f 18/18/15 16/51/13 15/19/14
f 20/21/17 18/52/15 17/22/16
f 22/24/19 20/53/17 19/25/18
f 24/27/21 22/54/19 21/28/20
f 11/30/23 24/55/21 23/31/22
f 26/33/24 27/56/27 28/34/25
f 27/36/27 29/57/29 30/37/28
f 29/39/29 4/58/2 31/40/30
f 33/42/31 34/59/35 35/43/32
f 5/45/6 33/60/31 32/46/33
f 38/61/36 40/62/36 37/63/36
f 42/64/36 44/65/36 41/66/36
f 46/67/36 48/68/36 45/69/36
f 50/70/36 52/71/36 49/72/36
f 39/73/36 49/74/36 44/75/36
f 54/76/37 41/77/36 53/78/38
f 56/79/39 53/80/38 55/81/40
f 58/82/41 60/83/42 57/84/42
f 57/85/42 62/86/43 61/87/44
f 63/88/5 65/89/45 35/90/32
f 66/91/46 34/92/35 8/93/5
f 67/94/46 7/95/5 2/96/1
f 68/97/47 1/98/3 26/99/24
f 70/100/48 72/101/49 69/102/50
f 74/103/51 69/104/50 73/105/52
f 76/106/53 73/107/52 75/108/54
f 64/109/45 78/110/55 77/111/45
f 79/112/56 75/113/54 65/114/45
f 82/115/36 25/116/26 81/117/36
f 47/118/36 84/119/36 52/120/36
f 83/121/36 86/122/36 85/123/36
f 85/124/36 81/125/36 84/126/36
f 88/127/57 55/128/40 87/129/57
f 59/130/58 89/131/57 60/132/42
f 60/133/42 87/134/57 62/135/43
f 91/136/57 57/137/42 90/138/57
f 90/139/57 61/140/44 92/141/57
f 71/142/59 92/143/57 72/144/49
f 38/61/36 39/145/36 40/62/36
f 42/64/36 43/146/36 44/65/36
f 46/67/36 47/147/36 48/68/36
f 50/70/36 51/148/36 52/71/36
f 39/73/36 46/149/36 49/74/36
f 54/76/37 38/150/36 41/77/36
f 56/79/39 54/151/37 53/80/38
f 58/82/41 59/152/58 60/83/42
f 57/85/42 60/153/42 62/86/43
f 63/88/5 64/154/45 65/89/45
f 66/91/46 63/155/5 34/92/35
f 67/94/46 66/156/46 7/95/5
f 68/97/47 67/157/46 1/98/3
f 70/100/48 71/158/59 72/101/49
f 74/103/51 70/159/48 69/104/50
f 76/106/53 74/160/51 73/107/52
f 64/109/45 76/161/53 78/110/55
f 79/112/56 80/162/54 75/113/54
f 82/115/36 68/163/47 25/116/26
f 47/118/36 83/164/36 84/119/36
f 83/121/36 82/165/36 86/122/36
f 85/124/36 86/166/36 81/125/36
f 88/127/57 56/167/39 55/128/40
f 59/130/58 88/168/57 89/131/57
f 60/133/42 89/169/57 87/134/57
f 91/136/57 58/170/41 57/137/42
f 90/139/57 57/171/42 61/140/44
f 71/142/59 91/172/57 92/143/57
f 95/173/57 80/174/54 94/175/60
f 95/173/57 78/176/55 80/174/54
f 100/177/61 36/178/34 99/179/62
f 3/180/7 103/181/63 31/182/30
f 102/183/64 97/184/46 103/185/63
f 104/186/46 96/187/46 98/188/46
f 100/177/61 6/189/4 36/178/34
f 3/180/7 102/190/64 103/181/63
f 102/183/64 104/191/46 97/184/46
f 104/186/46 101/192/46 96/187/46
f 25/193/26 35/194/32 105/195/65
f 55/196/40 53/197/38 25/193/26
f 61/198/44 62/199/43 55/196/40
f 69/200/50 72/201/49 61/198/44
f 105/195/65 75/202/54 73/203/52
f 18/204/15 105/195/65 73/203/52
f 16/205/13 18/204/15 73/203/52
f 105/195/65 18/204/15 20/206/17
f 69/200/50 61/198/44 55/196/40
f 73/203/52 69/200/50 55/196/40
f 16/205/13 73/203/52 55/196/40
f 14/207/11 16/205/13 55/196/40
f 25/193/26 105/195/65 20/206/17
f 10/208/8 14/207/11 55/196/40
f 25/193/26 20/206/17 22/209/19
f 11/210/23 10/208/8 55/196/40
f 25/193/26 22/209/19 24/211/21
f 11/210/23 55/196/40 25/193/26
f 24/211/21 11/210/23 25/193/26
f 28/212/25 30/213/28 31/214/30
f 106/215/65 25/193/26 28/212/25
f 28/212/25 31/214/30 106/215/65
f 106/215/65 31/214/30 103/216/63
f 99/217/62 36/218/34 107/219/65
f 106/215/65 103/216/63 99/217/62
f 107/219/65 106/215/65 99/217/62
f 36/218/34 32/220/33 35/194/32
f 107/219/65 36/218/34 35/194/32
f 68/221/47 108/222/66 63/223/5
f 56/224/39 68/221/47 54/225/37
f 58/226/41 56/224/39 59/227/58
f 70/228/48 58/226/41 71/229/59
f 108/222/66 74/230/51 76/231/53
f 109/232/66 74/230/51 108/222/66
f 110/233/66 74/230/51 109/232/66
f 108/222/66 111/234/66 109/232/66
f 70/228/48 56/224/39 58/226/41
f 74/230/51 56/224/39 70/228/48
f 110/233/66 56/224/39 74/230/51
f 112/235/66 56/224/39 110/233/66
f 68/221/47 111/234/66 108/222/66
f 113/236/66 56/224/39 112/235/66
f 68/221/47 114/237/66 111/234/66
f 115/238/66 56/224/39 113/236/66
f 68/221/47 116/239/66 114/237/66
f 115/238/66 68/221/47 56/224/39
f 116/239/66 68/221/47 115/238/66
f 114/237/66 109/232/66 111/234/66
f 116/239/66 109/232/66 114/237/66
f 115/238/66 109/232/66 116/239/66
f 113/236/66 109/232/66 115/238/66
f 112/235/66 109/232/66 113/236/66
f 110/233/66 109/232/66 112/235/66
f 27/240/27 4/241/2 29/242/29
f 1/243/3 27/240/27 26/244/24
f 27/240/27 1/243/3 4/241/2
f 2/245/1 102/246/64 3/247/7
f 100/248/61 7/249/5 6/250/4
f 2/245/1 100/248/61 102/246/64
f 7/249/5 100/248/61 2/245/1
f 5/251/6 34/252/35 33/253/31
f 8/254/5 34/252/35 5/251/6
f 80/255/54 79/256/56 93/257/65
f 94/258/60 80/255/54 93/257/65
f 21/259/20 19/260/18 17/261/16
f 23/262/22 21/259/20 17/261/16
f 12/263/9 23/262/22 17/261/16
f 9/264/10 12/263/9 17/261/16
f 13/265/12 9/264/10 17/261/16
f 15/266/14 13/265/12 17/261/16
